<?xml version="1.0" standalone="no"?>
<svg xmlns:xlink="http://www.w3.org/1999/xlink" id="wave" style="transform:rotate(0deg); transition: 0.3s" viewBox="0 0 1440 490" version="1.1" xmlns="http://www.w3.org/2000/svg"><defs><linearGradient id="sw-gradient-0" x1="0" x2="0" y1="1" y2="0"><stop stop-color="rgba(209, 185, 110, 1)" offset="0%"/><stop stop-color="rgba(238, 224, 178, 1)" offset="100%"/></linearGradient></defs><path style="transform:translate(0, 0px); opacity:1" fill="url(#sw-gradient-0)" d="M0,147L80,130.7C160,114,320,82,480,81.7C640,82,800,114,960,130.7C1120,147,1280,147,1440,130.7C1600,114,1760,82,1920,106.2C2080,131,2240,212,2400,245C2560,278,2720,261,2880,261.3C3040,261,3200,278,3360,253.2C3520,229,3680,163,3840,187.8C4000,212,4160,327,4320,334.8C4480,343,4640,245,4800,171.5C4960,98,5120,49,5280,81.7C5440,114,5600,229,5760,236.8C5920,245,6080,147,6240,155.2C6400,163,6560,278,6720,318.5C6880,359,7040,327,7200,285.8C7360,245,7520,196,7680,163.3C7840,131,8000,114,8160,130.7C8320,147,8480,196,8640,196C8800,196,8960,147,9120,171.5C9280,196,9440,294,9600,343C9760,392,9920,392,10080,343C10240,294,10400,196,10560,138.8C10720,82,10880,65,11040,57.2C11200,49,11360,49,11440,49L11520,49L11520,490L11440,490C11360,490,11200,490,11040,490C10880,490,10720,490,10560,490C10400,490,10240,490,10080,490C9920,490,9760,490,9600,490C9440,490,9280,490,9120,490C8960,490,8800,490,8640,490C8480,490,8320,490,8160,490C8000,490,7840,490,7680,490C7520,490,7360,490,7200,490C7040,490,6880,490,6720,490C6560,490,6400,490,6240,490C6080,490,5920,490,5760,490C5600,490,5440,490,5280,490C5120,490,4960,490,4800,490C4640,490,4480,490,4320,490C4160,490,4000,490,3840,490C3680,490,3520,490,3360,490C3200,490,3040,490,2880,490C2720,490,2560,490,2400,490C2240,490,2080,490,1920,490C1760,490,1600,490,1440,490C1280,490,1120,490,960,490C800,490,640,490,480,490C320,490,160,490,80,490L0,490Z"/></svg>